<?xml version="1.0"?>
<svg xmlns:rdf="http://www.w3.org/1999/02/22-rdf-syntax-ns#" xmlns="http://www.w3.org/2000/svg" xmlns:cc="http://web.resource.org/cc/" xmlns:dc="http://purl.org/dc/elements/1.1/" xmlns:svg="http://www.w3.org/2000/svg" id="svg2" viewBox="0 0 744.09 524.41" version="1.0">
  <defs id="defs4">
    <filter id="filter4153">
      <feGaussianBlur id="feGaussianBlur4155" stdDeviation="81.084917"/>
    </filter>
  </defs>
  <g id="layer1">
    <rect id="rect3152" transform="matrix(.11047 -.023735 .022163 .10315 300.37 92.346)" height="3419.3" filter="url(#filter4153)" width="5602.9" y="56.332" x="-2512.5" fill="#c8c4b7"/>
    <rect id="rect3162" transform="matrix(.11047 -.023735 .022163 .10315 308.47 74.821)" height="3419.3" width="5602.9" y="56.332" x="-2512.5" fill="#ffe680"/>
    <g id="g3154" transform="matrix(.34629 0 0 .34629 227.09 -36.051)">
      <path id="path4171" transform="matrix(1.2585 -.23001 .21688 1.1867 -274.8 99.222)" fill="#ecca3e" d="m527.82 393.14a123.43 123.43 0 1 1 -246.87 0 123.43 123.43 0 1 1 246.87 0z"/>
      <path id="path2164" transform="matrix(1.2585 -.23001 .21688 1.1867 -248.76 68.254)" fill="#d40000" d="m527.82 393.14a123.43 123.43 0 1 1 -246.87 0 123.43 123.43 0 1 1 246.87 0z"/>
      <path id="path2179" fill="#e00" d="m509.34 405.88l-152.09 27.81-31.84 143.87c17.67 2.7 36.12 2.74 54.84-0.68 84.38-15.43 141.36-91.54 129.09-171z"/>
      <path id="path2162" fill="#f00" d="m358.56 281.16c-10.46-0.11-21.12 0.79-31.84 2.75-85.75 15.67-143.34 94.01-128.56 174.87 11.55 63.21 63.97 109.14 127.25 118.78l31.84-143.87 152.09-27.81c-0.2-1.3-0.26-2.59-0.5-3.88-12.93-70.75-77.01-120.11-150.28-120.84z"/>
      <path id="path2166" fill="#a00" d="m294.21 361.94l-11.42 8.44-21.06 15.75c-8.59 18.28-7.39 37.67-2.01 58.27 13.96 53.44 53.71 79.56 109.79 73.19 28.71-3.26 55.01-12.92 71.14-33.43l29.25-36.68-175.69-85.54z"/>
      <path id="path2160" transform="matrix(.98371 -.17978 .16952 .92756 -78.014 79.234)" fill="#d40000" d="m527.82 393.14a123.43 123.43 0 1 1 -246.87 0 123.43 123.43 0 1 1 246.87 0z"/>
      <path id="path2174" transform="matrix(.98371 -.17978 .16952 .92756 -69.307 71.273)" fill="#f00" d="m527.82 393.14a123.43 123.43 0 1 1 -246.87 0 123.43 123.43 0 1 1 246.87 0z"/>
    </g>
    <path id="path2180" transform="matrix(.88235 -.22309 .22309 .88235 -751.27 398.11)" d="m948.91 58.469c-1.88 0.102-3.51 1.871-3.22 4.875 0.6 6.326 1.05 12.632 1.87 18.937 1.24 7.135 1.47 14.383 2 21.599 0.48 8.7 0.35 17.46 0.38 26.18 0.06 9.98-0.38 19.93-0.44 29.91-0.14 10.32 0.01 20.65-0.88 30.94-0.43 4.98-1.62 9.95-2.12 14.65-0.44 4.11 1.71 6.79 4.47 7.91 1.2 1.72 3.43 2.81 6.56 2.34 5.75-0.85 11.18-0.63 16.91-0.53 5.85 1.89 11.74 2.24 17.75 2.34 5.04 1.23 9.91 1.06 14.71 2.72 6-0.11 5.4 0.59 3.6 1.22 1.6-0.35 3.6-0.78 6.6-1.4 12.4-2.62 8.6-21.23-3.6-17.63-0.5 0.15-1.3-1.14-1.6 0.47-6.5-1.25-12.69-3.7-19.4-1.56-5.95-0.46-11.9-1.56-17.88-0.5-4.49 0.1-8.97 0.34-13.4 1.15-0.03-3.71-0.36-7.45-1.06-11.21-0.94-10.23-0.94-20.5-0.88-30.76 0.26-10.01 0.82-20 1.44-30 0.2-8.85-0.96-17.7-0.31-26.56 0.01-7.704-0.73-15.263-1.97-22.872-1.11-6.63-2.37-13.2-5.41-19.282-1.05-2.099-2.66-3.017-4.12-2.937zm386.59 18.156c-1.9 0.063-3.9 1.016-5.3 3.25-4.4 6.918-7.9 14.251-11.2 21.745-2.8 8.64-6.2 17.04-9.9 25.29-3.8-5.82-8.6-10.87-13.9-15.88-9.1-9.94-17.8-20.261-25.6-31.374-5.9-8.301-18 3.785-10.1 10.125 10.2 8.308 19.3 17.869 26.9 28.749 4.8 7.21 7.8 15.38 12.1 22.56 0.6 1.02 1.3 1.84 2 2.5-3.8 7.27-7.5 14.6-11 22-5.7 13.49-11.8 26.7-19.3 39.19-2.5 4.4-5.5 8.37-8.4 12.47-6.5 9.14 11.5 17.6 14.1 6.66 1.2-4.82 2.1-9.72 3.9-14.35 4.9-13.84 13.1-25.98 19-39.4 4.2-9.4 8.7-18.7 13.4-27.88 0.3-0.56 0.7-1.17 0.9-1.84 0.9-1.62 1.7-3.24 2.5-4.85 5.3-9.46 10-19.13 14-29.25 3.2-6.744 6.7-13.237 11.5-18.996 4.3-5.19-0.6-10.881-5.6-10.719zm197.2 11.594c-0.9-0.011-1.9 0.028-2.9 0.156-6 2.337-11.6 5.039-16.4 9.406-1.4 1.681-2.7 3.279-3.8 4.909-1-1.5-2.2-2.959-3.5-4.502-4.9-4.367-10.5-7.069-16.4-9.407-8.1-1.025-13.4 2.609-19.4 7.313-5.7 5.476-7.1 12.456-8.4 19.906-0.6 9.4 1.2 18.43 4.7 27.12 4.5 9.63 10.1 18.73 16.2 27.44 5.8 7.83 10.4 16.36 13.9 25.47 4.3 12-1.1-2.99 2.5 7.22 1.9 5.25 7.6 4.78 10.8 1.94 3.3 2.45 8.4 2.66 10.2-2.31 3.6-10.21-1.7 4.75 2.6-7.26 3.5-9.1 8-17.64 13.9-25.46 6.1-8.72 11.7-17.79 16.2-27.41 3.5-8.69 5.2-17.75 4.7-27.16-1.4-7.44-2.7-14.4-8.5-19.871-5.2-4.116-9.9-7.423-16.4-7.5zm-0.3 11.062c4-0.002 6.3 2.419 9.2 4.599 3.9 3.6 4.9 8.1 5.9 13.06 1.3 7.81-1.1 15.04-3.8 22.28-3.6 9.17-9.7 16.96-15.6 24.78-6.5 8.25-11 17.68-15.8 26.94-0.5 1.59-1.7 2.77-2.8 4-0.9-1.09-1.9-2.18-2.4-3.6-4.8-9.26-9.3-18.71-15.8-26.96-5.8-7.83-11.9-15.62-15.5-24.79-2.7-7.23-5.1-14.43-3.9-22.25 1-4.96 2-9.46 5.9-13.06 2.9-2.18 5.2-4.594 9.2-4.592 4.2 1.452 8.4 2.762 11.7 6.062 3 3.34 5.9 6.07 6.6 10.91 0.5 3.7 3.5 5 5.7 3.72 1.5-0.35 2.8-1.76 3.2-4.13 0.7-4.84 3.5-7.54 6.6-10.87 3.3-3.31 7.5-4.64 11.6-6.099zm-469.4 17.439c-0.7-0.02-1.5 0.24-2.2 0.94-4.2 4-6.6 9.31-9.3 14.37-3.6 5.33-4.5 11.42-5.5 17.59-1 7.32-2 14.64-2.8 21.97-1 7.19-0.7 14.33-0.1 21.5 0.3 6.61 2.9 12.19 6 17.75 6.1 8.22 12.5 7.99 21.7 8.63 7.8-2.92 13.1-6.42 18.6-12.59 4.5-5.29 6.2-11.95 7.9-18.47 2.9-6.06 3.1-13.13 3.3-19.72-0.3-7.65 0.1-14.24-4.4-20.85-1.2-6.92-6.6-10.71-10.3-16.15-3.5-5.07-7.1-5.43-13.3-5.25-3 0.08-2.6-0.48-3.4 2.34-2 6.58-2.5 9.89 1.8 15.31 3.6 3.26 6.1 7.03 9.3 10.75 1.1 4.82 2.2 9.26 1.7 14.19 0.4 5.35 0.9 10.38 0.2 15.88-1.1 4.75-2 9.36-4 13.9-2.5 3.74-4.7 7.52-9.6 8.35-4.2 0.41-6.1 1.69-9.4-2.07-2-4.3-4.6-8.84-5.8-13.78-1.4-6.36-2.8-12.78-2.8-19.34 0-7.09 0-14.19 1.3-21.19 1.4-5.4 2.6-10.89 4.7-16.03 2.6-4.37 4.9-8.98 8.1-12.91 1.9-2.35 0.4-5.07-1.7-5.12zm53.9 5.12c-4.4-0.11-8.4 4.18-6 10.07 2.3 5.37 4.4 10.12 5.8 15.87 1.1 6.09 2.2 12.17 3.3 18.25 1.6 7.7 2.9 15.44 4.2 23.19 1 6.89 0.8 13.84 1.1 20.78-0.1 14.82 13.8 19.64 22.4 6.56 5.2-8.52 8.3-17.93 11.8-27.22 3.1-8.17 6.4-16.33 9.3-24.59 1.7-7.35 2.4-14.9 3.7-22.34 1.5-8.13 1.6-9.46-7-12.63-1.5-0.54-0.8-0.17-2.2 0.44-7.2 3.02-6.9 3.55-6.6 10.44-0.4 6.7-0.9 13.44-2.3 20.03-2 8.19-5.1 15.98-7.5 24.09-1.9 5.2-4 10.41-6.5 15.38-0.6-4.44-1.2-8.88-1.7-13.32-1.3-7.8-2.4-15.61-3.5-23.43-1.1-6.56-2.3-13.11-4.1-19.5-2.2-6.16-4.4-12.29-7.7-17.88-1.7-2.86-4.2-4.13-6.5-4.19zm91 1.6c-2.5-0.01-5 0.54-7.7 1.72-7.5 2.19-11.1 9.28-15.2 15.59-2.1 5.68-3.7 11.51-5.7 17.22-2.8 6.94-3.7 14.32-4.7 21.65-1.1 6.75-1 13.55-0.9 20.35-1.1 6.92 1.4 13.03 2.1 19.78 7.9 10.03 14.2 8.35 25.2 5.5 5.1-2.97 9.2-7.24 13.1-11.56 6.7-5.11 8.7-9.3 9.4-17.53 0.1-0.5 0-0.57-0.5-0.47-7.2 1.37-11.6 3.73-16.7 9.22-3.8 2.71-7.3 5.71-10.9 8.65-2.8 1.37-3.8 2.92-7.1 1.82-2.4-4.95-1.3-9.95-2-15.54 0-6.22-0.2-12.47 0.3-18.68 0.6-4.28 1.3-8.53 2.5-12.69 0.3 0.16 0.6 0.31 0.9 0.44 4.8 1.76 9.1 3.14 14.3 2.62 6.4-2.4 13.2-3.36 18.2-8.53 2.2-6.49 5.1-12.22 2.6-19.28-1.8-4.88-8.6-3.71-7.3 1.31 1.5 5.44-0.6 8.47-2.6 12.25-3.9 2.95-7.3 4.56-12.2 4.41-3.5 0.58-5.8-1.33-8.6-2.53-0.6-0.27-1.2-0.46-1.8-0.54 1.7-3.91 3.3-7.84 4.6-11.9 1.8-4.34 3.5-7.52 7-10.56 3.8-0.71 6.1-0.97 9.1 2 5.8 5.64 14.2-0.62 9.1-6.97-3.9-4.97-9-7.73-14.5-7.75zm132.5 6.03c-1.9 0.06-3.9 1.14-4.9 3.69-4.1 10.45-6.6 21.42-9 32.37-2.2 9.32-2.9 18.81-3.2 28.35-0.4 7.7-0.1 15.15 3 22.18 7.7 14.43 16.5 12.22 28.6 4.1 6-7.04 9.4-15.83 13.1-24.22 3.4-8.08 5.4-16.2 6-24.88-0.2-8.38-3.2-16.18-6.6-23.65-2-3.85-5.5-6.72-8.5-9.72-7.8-7.54-17.3 4.61-9.5 12.06 1.7 1.57 3.9 2.64 5.2 5 2.8 5.39 5.2 9.91 4.8 16.56 0 6.84-0.1 13.16-3.5 19.41-2.8 6.78-5.8 13.32-10.7 18.78-3.5 4.59-1.3 5.59-6.4 2.31-0.8-6.21-1.3-12.48-2.6-18.62-1-8.58-1.5-17.18 0.1-25.75 1.6-10.44 4.4-20.47 9.3-29.82 2.4-4.6-1.4-8.27-5.2-8.15zm65 5.91c-3 0.01-6.1 2.12-6.6 6.53-1.2 11.34-0.7 22.72-0.6 34.09-0.5 8.29-0.1 16.56-0.4 24.84-0.2 13.23 5.2 21.54 18.5 23.78 16.2-5.57 17.1-24.6 21.2-39.37 0-0.39 0.1-0.77 0.2-1.16-0.1 7.2-0.1 14.4-0.2 21.6-0.6 5.16 0.6 9.99 1.3 14.97 1.6 9.88 14 8.32 13.8-1.69-0.1-4.61-0.1-9.19-0.6-13.81-0.7-8.46-1.1-16.93-1.4-25.41-0.7-10.09-1.8-20.15-2.5-30.25 0.3-2.48 0-4.69-0.6-6.56 0.3-4.48-2-6.3-4.4-5.72-3.3-1.67-6.9 0.55-6.5 8.78-2.4 12.14-2.6 24.8-7.8 36.34-2.5 6.96-10.2 19.95-12.6 22.6 0.3-1.8 1.1-3.65 0.7-5.41-1.5-8.09-2.3-16.2-3.2-24.37-1-10.68-3-21.43-1.9-32.16 0.5-5-2.9-7.64-6.4-7.62zm-395.4 86.31c-6.1 1.36-2.5 0.77 0 0z"/>
    <path id="path2235" d="m193.41 447.73c24.82-21.55 55.83-34.61 85.38-48.27 50.89-23.96 104.53-40.7 159.35-52.75 33.18-7.12 67.12-8.66 100.91-10.34h6.17c7.95-0.01 7.34 12.06-0.56 11.23-1.91-0.21-3.81-0.41-5.72-0.61-33.21-2.37-66.47 2.02-99.24 7.13-54.58 11.01-107.71 27.42-158.25 51.06-28.62 13.37-58.32 26.68-82.08 47.96-4.24 3.79-10.26-1.68-5.96-5.41z"/>
  </g>
  <metadata>
    <rdf:RDF>
      <cc:Work>
        <dc:format>image/svg+xml</dc:format>
        <dc:type rdf:resource="http://purl.org/dc/dcmitype/StillImage"/>
        <cc:license rdf:resource="http://creativecommons.org/licenses/publicdomain/"/>
        <dc:publisher>
          <cc:Agent rdf:about="http://openclipart.org/">
            <dc:title>Openclipart</dc:title>
          </cc:Agent>
        </dc:publisher>
        <dc:title>Thumbtack note Love you</dc:title>
        <dc:date>2007-02-06T06:20:54</dc:date>
        <dc:description>Thumbtack note with message "Love you?"</dc:description>
        <dc:source>http://openclipart.org/detail/3041/thumbtack-note-love-you-by-zeimusu</dc:source>
        <dc:creator>
          <cc:Agent>
            <dc:title>zeimusu</dc:title>
          </cc:Agent>
        </dc:creator>
        <dc:subject>
          <rdf:Bag>
            <rdf:li>bulletin</rdf:li>
            <rdf:li>clip art</rdf:li>
            <rdf:li>clipart</rdf:li>
            <rdf:li>image</rdf:li>
            <rdf:li>love you</rdf:li>
            <rdf:li>media</rdf:li>
            <rdf:li>memo</rdf:li>
            <rdf:li>note</rdf:li>
            <rdf:li>png</rdf:li>
            <rdf:li>public domain</rdf:li>
            <rdf:li>svg</rdf:li>
            <rdf:li>thumbtack</rdf:li>
            <rdf:li>thumbtack note</rdf:li>
            <rdf:li>valentine</rdf:li>
          </rdf:Bag>
        </dc:subject>
      </cc:Work>
      <cc:License rdf:about="http://creativecommons.org/licenses/publicdomain/">
        <cc:permits rdf:resource="http://creativecommons.org/ns#Reproduction"/>
        <cc:permits rdf:resource="http://creativecommons.org/ns#Distribution"/>
        <cc:permits rdf:resource="http://creativecommons.org/ns#DerivativeWorks"/>
      </cc:License>
    </rdf:RDF>
  </metadata>
</svg>
